name GIL11_fast2.mot
datacolumns 153
datarows 4
range 0.49999991 0.52499992
endheader

                time	           pelvis_tx	           pelvis_ty	           pelvis_tz	         pelvis_tilt	         pelvis_list	     pelvis_rotation	       hip_flexion_r	     hip_adduction_r	      hip_rotation_r	        knee_angle_r	       ankle_angle_r	    subtalar_angle_r	         mtp_angle_r	       hip_flexion_l	     hip_adduction_l	      hip_rotation_l	        knee_angle_l	       ankle_angle_l	    subtalar_angle_l	         mtp_angle_l	    lumbar_extension	      lumbar_bending	     lumbar_rotation	     ground_force_vx	     ground_force_vy	     ground_force_vz	     ground_force_px	     ground_force_py	     ground_force_pz	     ground_force_vx	     ground_force_vy	     ground_force_vz	     ground_force_px	     ground_force_py	     ground_force_pz	     ground_torque_x	     ground_torque_y	     ground_torque_z	     ground_torque_x	     ground_torque_y	     ground_torque_z	    ground_marker_px	    ground_marker_py	    ground_marker_pz	    ground_marker_px	    ground_marker_py	    ground_marker_pz	    ground_marker_px	    ground_marker_py	    ground_marker_pz	    ground_marker_px	    ground_marker_py	    ground_marker_pz	    ground_marker_px	    ground_marker_py	    ground_marker_pz	    ground_marker_px	    ground_marker_py	    ground_marker_pz	    ground_marker_px	    ground_marker_py	    ground_marker_pz	    ground_marker_px	    ground_marker_py	    ground_marker_pz	    ground_marker_px	    ground_marker_py	    ground_marker_pz	    ground_marker_px	    ground_marker_py	    ground_marker_pz	    ground_marker_px	    ground_marker_py	    ground_marker_pz	    ground_marker_px	    ground_marker_py	    ground_marker_pz	    ground_marker_px	    ground_marker_py	    ground_marker_pz	    ground_marker_px	    ground_marker_py	    ground_marker_pz	    ground_marker_px	    ground_marker_py	    ground_marker_pz	    ground_marker_px	    ground_marker_py	    ground_marker_pz	    ground_marker_px	    ground_marker_py	    ground_marker_pz	    ground_marker_px	    ground_marker_py	    ground_marker_pz	    ground_marker_px	    ground_marker_py	    ground_marker_pz	    ground_marker_px	    ground_marker_py	    ground_marker_pz	    ground_marker_px	    ground_marker_py	    ground_marker_pz	    ground_marker_px	    ground_marker_py	    ground_marker_pz	    ground_marker_px	    ground_marker_py	    ground_marker_pz	    ground_marker_px	    ground_marker_py	    ground_marker_pz	    ground_marker_px	    ground_marker_py	    ground_marker_pz	    ground_marker_px	    ground_marker_py	    ground_marker_pz	    ground_marker_px	    ground_marker_py	    ground_marker_pz	    ground_marker_px	    ground_marker_py	    ground_marker_pz	    ground_marker_px	    ground_marker_py	    ground_marker_pz	    ground_marker_px	    ground_marker_py	    ground_marker_pz	    ground_marker_px	    ground_marker_py	    ground_marker_pz	    ground_marker_px	    ground_marker_py	    ground_marker_pz	    ground_marker_px	    ground_marker_py	    ground_marker_pz	    ground_marker_px	    ground_marker_py	    ground_marker_pz	    ground_marker_px	    ground_marker_py	    ground_marker_pz	    ground_marker_px	    ground_marker_py	    ground_marker_pz	    ground_marker_px	    ground_marker_py	    ground_marker_pz	
          0.49999991	          1.93386924	          0.84641129	         -0.26035437	         -4.07173157	          4.88782883	         -1.26066613	        -16.04758263	         -5.19111061	          0.74415267	        -21.85049057	        -12.77041531	          0.00000000	          0.00000000	         31.57304001	          3.49544358	          9.54800129	        -19.24250793	         -4.69202137	          0.00000000	          0.00000000	         -0.26096335	         -8.59121990	          7.18473148	         70.03042272	        235.74303480	          2.83878287	          1.52019336	          0.00000000	         -0.18499182	        -72.20105604	        513.24382110	         -6.65628963	          2.06841772	          0.00000000	         -0.34048712	          0.00000000	          0.43481284	          0.00000000	          0.00000000	          1.21848987	          0.00000000	          1.86258090	          0.79350859	         -0.27718493	          1.84305322	          0.76677454	         -0.19417028	          1.84486103	          0.77814037	         -0.34586194	          1.71658230	          0.42333427	         -0.19272752	          2.02567339	          0.42762059	         -0.34026149	          1.46043110	          0.13952497	         -0.18984224	          2.07271981	          0.06911343	         -0.33447790	          1.93386924	          0.84641129	         -0.26035437	          1.92855835	          0.83741432	         -0.14206551	          1.93918014	          0.85540825	         -0.37864324	          1.73937917	          0.90597075	         -0.24371836	          1.73635125	          0.90175211	         -0.29904187	          1.71650541	          0.42360622	         -0.13472821	          2.03835917	          0.43326473	         -0.39657497	          1.72355318	          0.42610568	         -0.25178885	          2.02819753	          0.43994126	         -0.27471074	          1.44767308	          0.15140563	         -0.15384109	          2.06387687	          0.06732433	         -0.37344718	          1.47278237	          0.13809462	         -0.22249998	          2.08345985	          0.07960967	         -0.30906156	          1.81684184	          1.34514272	         -0.26882383	          1.94916904	          1.28868139	         -0.22902140	          1.93953323	          1.28186500	         -0.33448973	          1.94085705	          1.28256953	         -0.28081611	          1.98299170	          1.21377850	         -0.28397572	          1.91880858	          0.49479681	         -0.19765875	          2.02938151	          0.56281298	         -0.48420289	          1.87205112	          0.56701899	         -0.14478061	          1.94633377	          0.58282125	         -0.43429837	          1.82791960	          0.49053720	         -0.14715666	          1.98896503	          0.50856787	         -0.41633210	          1.49169493	          0.22164936	         -0.08533082	          2.14753151	          0.20923814	         -0.31861594	          1.49696040	          0.22325987	         -0.12762301	          2.11074495	          0.20176619	         -0.33166057	          1.49566996	          0.04778053	         -0.16768445	          2.18330622	          0.05212109	         -0.35502362	
          0.50833321	          1.94910944	          0.84674233	         -0.26185733	         -4.04677963	          5.23862267	         -1.02837014	        -15.25604916	         -5.89985943	          0.58551788	        -24.34620094	        -16.20187187	          0.00000000	          0.00000000	         31.52449036	          4.27018642	         10.27264214	        -21.07933807	         -4.16700649	          0.00000000	          0.00000000	         -0.31591091	         -9.56427574	          7.12934732	         46.88949257	        159.97896913	          5.19219724	          1.52500684	          0.00000000	         -0.18469208	        -88.41944644	        543.81931035	          8.38646654	          2.07611353	          0.00000000	         -0.34202423	          0.00000000	          0.27097205	          0.00000000	          0.00000000	          1.23444885	          0.00000000	          1.87819672	          0.79505759	         -0.28084904	          1.85850108	          0.76657152	         -0.19603425	          1.85996795	          0.77900034	         -0.34764618	          1.73670554	          0.42054287	         -0.19212322	          2.04019594	          0.42867714	         -0.33961079	          1.47251070	          0.14445689	         -0.18783104	          2.07510161	          0.06878600	         -0.33376741	          1.94910944	          0.84674233	         -0.26185733	          1.94407928	          0.83694178	         -0.14396507	          1.95413959	          0.85654289	         -0.37974963	          1.75456166	          0.90588886	         -0.24389799	          1.75092793	          0.90241170	         -0.29926461	          1.73677731	          0.42117313	         -0.13412669	          2.05373979	          0.43435800	         -0.39572039	          1.74471927	          0.42199406	         -0.25118965	          2.04451013	          0.44314498	         -0.27494594	          1.46019113	          0.15680549	         -0.15183465	          2.06733751	          0.06739625	         -0.37298205	          1.48469627	          0.14192039	         -0.22009714	          2.08572912	          0.07892819	         -0.30832586	          1.83095241	          1.34590995	         -0.27028754	          1.96357679	          1.28989720	         -0.22992882	          1.95358324	          1.28196859	         -0.33623436	          1.95501304	          1.28307950	         -0.28187233	          1.99726248	          1.21444476	         -0.28469983	          1.93861508	          0.49472749	         -0.19806620	          2.04603553	          0.56462580	         -0.48367885	          1.89049709	          0.56640351	         -0.14541662	          1.96389747	          0.58604831	         -0.43545556	          1.84809589	          0.48931056	         -0.14721832	          2.00654149	          0.51134175	         -0.41692850	          1.50652397	          0.22606167	         -0.08360131	          2.15394783	          0.20626976	         -0.31526616	          1.51177883	          0.22724426	         -0.12607214	          2.11757970	          0.20009716	         -0.32874504	          1.50007629	          0.04925655	         -0.16736798	          2.18586874	          0.04902260	         -0.35373586	
          0.51666659	          1.96417642	          0.84725529	         -0.26350987	         -4.02383232	          5.62452030	         -0.77277327	        -14.29042339	         -6.66398382	          0.46649751	        -27.01224136	        -19.47563934	          0.00000000	          0.00000000	         31.36816025	          5.09904623	         10.90087700	        -22.75895119	         -3.35053802	          0.00000000	          0.00000000	         -0.44095629	        -10.30811405	          7.12868547	         27.65698250	        105.21326421	          5.33225456	          1.53077283	          0.00000000	         -0.18430078	       -104.21119287	        589.40404847	         19.59159408	          2.08292236	          0.00000000	         -0.34293488	          0.00000000	          0.15526492	          0.00000000	          0.00000000	          1.39615283	          0.00000000	          1.89384770	          0.79693961	         -0.28363356	          1.87379241	          0.76650476	         -0.19808839	          1.87488353	          0.78010160	         -0.34960321	          1.75778067	          0.41753060	         -0.19158716	          2.05393362	          0.42946202	         -0.33910483	          1.48599017	          0.14954434	         -0.18612882	          2.07700205	          0.06855509	         -0.33319941	          1.96417642	          0.84725529	         -0.26350987	          1.95945215	          0.83657408	         -0.14602447	          1.96890080	          0.85793650	         -0.38099524	          1.76955426	          0.90593392	         -0.24366327	          1.76530802	          0.90319395	         -0.29905397	          1.75802958	          0.41852823	         -0.13359627	          2.06826115	          0.43510398	         -0.39502341	          1.76643205	          0.41701016	         -0.24920851	          2.05909204	          0.44398248	         -0.27599034	          1.47419953	          0.16223659	         -0.15007482	          2.07024431	          0.06747829	         -0.37260976	          1.49807084	          0.14629732	         -0.21808067	          2.08772874	          0.07853766	         -0.30754969	          1.84529269	          1.34690380	         -0.27156678	          1.97779405	          1.29124105	         -0.23091927	          1.96737540	          1.28275394	         -0.33751747	          1.96915960	          1.28385210	         -0.28293094	          2.01124525	          1.21549296	         -0.28561994	          1.95903182	          0.49512216	         -0.19869287	          2.06187081	          0.56620038	         -0.48339790	          1.90954137	          0.56585145	         -0.14640538	          1.98051882	          0.58752245	         -0.43671587	          1.86920202	          0.48815483	         -0.14695537	          2.02280903	          0.51307333	         -0.41812184	          1.52282906	          0.23010464	         -0.08200508	          2.15959477	          0.20327954	         -0.31231514	          1.52788079	          0.23099190	         -0.12431282	          2.12297678	          0.19753513	         -0.32529432	          1.50586617	          0.05136532	         -0.16718689	          2.18782282	          0.04669738	         -0.35280317	
          0.52499992	          1.97906315	          0.84794277	         -0.26528126	         -3.98910809	          6.03775120	         -0.49733904	        -13.17588997	         -7.47366095	          0.39094159	        -29.83619690	        -22.33654594	          0.00000000	          0.00000000	         31.05298996	          5.96291637	         11.40899467	        -24.19478416	         -2.34890985	          0.00000000	          0.00000000	         -0.54230988	        -10.34438801	          6.84439659	         14.35086996	         68.42758803	          4.22080082	          1.53582190	          0.00000000	         -0.18375000	       -115.96335879	        637.82110146	         26.33219397	          2.08851929	          0.00000000	         -0.34326672	          0.00000000	          0.06430496	          0.00000000	          0.00000000	          1.71721313	          0.00000000	          1.90917373	          0.79886574	         -0.28606799	          1.88893783	          0.76655543	         -0.20029333	          1.88961840	          0.78140301	         -0.35169312	          1.77978301	          0.41436931	         -0.19110945	          2.06665277	          0.42988202	         -0.33880764	          1.50088060	          0.15483652	         -0.18489394	          2.07851553	          0.06837928	         -0.33272323	          1.97906315	          0.84794277	         -0.26528126	          1.97466969	          0.83631998	         -0.14820386	          1.98345661	          0.85956556	         -0.38235867	          1.78432548	          0.90606505	         -0.24308968	          1.77951574	          0.90401030	         -0.29848406	          1.78022981	          0.41574278	         -0.13312744	          2.08165789	          0.43539527	         -0.39456111	          1.78993952	          0.41172382	         -0.24868985	          2.07185721	          0.44384691	         -0.27657238	          1.48971725	          0.16769981	         -0.14870121	          2.07264614	          0.06752087	         -0.37228099	          1.51332390	          0.15119484	         -0.21644102	          2.08903241	          0.07837033	         -0.30684856	          1.85946417	          1.34777772	         -0.27252966	          1.99158370	          1.29191411	         -0.23193525	          1.98142052	          1.28423440	         -0.33827078	          1.98327076	          1.28482485	         -0.28396216	          2.02514410	          1.21656954	         -0.28694564	          1.97996747	          0.49599931	         -0.19951044	          2.07667089	          0.56731206	         -0.48336864	          1.92886519	          0.56565911	         -0.14747581	          1.99532807	          0.58800048	         -0.43746349	          1.89088929	          0.48656529	         -0.14737102	          2.03721714	          0.51386368	         -0.41882935	          1.54060662	          0.23367104	         -0.08064959	          2.16454053	          0.20031631	         -0.30983275	          1.54579782	          0.23465922	         -0.12229796	          2.12780690	          0.19548786	         -0.32371894	          1.51344061	          0.05418872	         -0.16717161	          2.18927741	          0.04500184	         -0.35213622	
